<svg width="200" height="200" viewBox="0 0 200 200" fill="none" xmlns="http://www.w3.org/2000/svg">
<path d="M175 104.167C175 94.416 171.451 82.9637 168.064 74.2301C190.404 68.475 200 28.9758 200 12.5C200 10.1969 198.136 8.33322 195.833 8.33322C172.342 8.33322 140.684 23.5992 134.492 40.1942C125.668 36.8196 113.354 33.3332 100 33.3332C86.6461 33.3332 74.332 36.8192 65.5074 40.1942C59.316 23.5992 27.6574 8.33322 4.16641 8.33322C1.86367 8.33322 0 10.1969 0 12.5C0 28.9758 9.5957 68.475 31.9355 74.2301C28.5488 82.9637 25 94.4156 25 104.167C25 111.479 23.5027 114.095 21.5984 117.407C19.2871 121.439 16.6668 126.017 16.6668 137.5C16.6668 159.639 46.3461 191.667 100 191.667C153.654 191.667 183.333 159.639 183.333 137.5C183.333 126.017 180.713 121.439 178.402 117.407C176.497 114.095 175 111.479 175 104.167Z" fill="#303C42"/>
<path d="M156.422 58.7973C158.472 57.7555 160.987 58.541 162.037 60.5875C162.186 60.877 163.298 63.0637 164.796 66.4008C168.706 65.7387 172.192 63.3965 175.28 60.0426C174.706 51.409 169.709 32.0524 164.238 24.6051C152.908 30.0567 144.079 37.3559 142.115 43.4192C145.559 45.034 147.674 46.2461 147.942 46.4031C149.928 47.5668 150.587 50.1141 149.432 52.0996C148.276 54.0852 145.729 54.7688 143.735 53.5969C143.532 53.4789 123 41.6664 100.002 41.6664C76.9225 41.6664 56.4795 53.4746 56.276 53.5969C55.6088 53.9836 54.8842 54.1664 54.1682 54.1664C52.7439 54.1664 51.3443 53.4301 50.5713 52.1035C49.4076 50.118 50.0748 47.5664 52.0607 46.4028C52.3295 46.2457 54.4443 45.0336 57.8881 43.4188C55.9244 37.3555 47.0951 30.0563 35.765 24.6047C30.1291 32.2762 25.1611 52.0344 24.8623 60.1965C27.9162 63.4676 31.3553 65.7489 35.2068 66.4008C36.7053 63.0637 37.817 60.877 37.9662 60.5875C39.024 58.5406 41.5389 57.7473 43.5814 58.7973C45.624 59.8512 46.4299 62.3657 45.3717 64.4086C45.2494 64.6446 33.3353 87.952 33.3353 104.167C33.3353 113.697 30.9428 117.867 28.835 121.55C27.6869 123.554 26.5861 125.528 25.8584 128.633C29.2064 126.359 33.1998 125 37.5006 125C48.9916 125 58.3338 134.347 58.3338 145.833C58.3338 155.441 51.7627 163.472 42.9002 165.868C55.4014 175.605 74.4127 183.333 100.001 183.333C125.588 183.333 144.6 175.605 157.101 165.868C148.238 163.472 141.667 155.441 141.667 145.833C141.667 134.347 151.01 125 162.501 125C166.801 125 170.795 126.358 174.144 128.632C173.416 125.528 172.315 123.554 171.167 121.549C169.06 117.867 166.667 113.696 166.667 104.166C166.667 87.9188 154.753 64.6442 154.631 64.4121C153.573 62.3657 154.379 59.8512 156.422 58.7973Z" fill="#FFEE58"/>
<path d="M62.5 116.667C69.4036 116.667 75 111.07 75 104.167C75 97.2632 69.4036 91.6668 62.5 91.6668C55.5964 91.6668 50 97.2632 50 104.167C50 111.07 55.5964 116.667 62.5 116.667Z" fill="#303C42"/>
<path d="M66.6668 104.167C68.9681 104.167 70.8336 102.301 70.8336 100C70.8336 97.6988 68.9681 95.8332 66.6668 95.8332C64.3655 95.8332 62.5 97.6988 62.5 100C62.5 102.301 64.3655 104.167 66.6668 104.167Z" fill="white"/>
<path d="M137.5 116.667C144.404 116.667 150 111.07 150 104.167C150 97.2632 144.404 91.6668 137.5 91.6668C130.596 91.6668 125 97.2632 125 104.167C125 111.07 130.596 116.667 137.5 116.667Z" fill="#303C42"/>
<path d="M134 104.167C136.301 104.167 138.167 102.301 138.167 100C138.167 97.6988 136.301 95.8332 134 95.8332C131.699 95.8332 129.833 97.6988 129.833 100C129.833 102.301 131.699 104.167 134 104.167Z" fill="white"/>
<path d="M121.574 130.957C121.265 131.396 119.182 132.735 115.202 133.191C111.328 133.634 105.998 133.093 102.767 130.221C101.979 129.518 100.993 129.167 100.006 129.166C101.07 129.164 102.134 128.758 102.946 127.946L107.113 123.779C108.301 122.587 108.659 120.797 108.016 119.238C107.373 117.68 105.852 116.667 104.167 116.667H95.834C94.1492 116.667 92.6277 117.68 91.9848 119.238C91.3418 120.797 91.7 122.587 92.8883 123.779L97.0551 127.946C97.8672 128.758 98.9312 129.165 99.9953 129.166C99.0086 129.167 98.0219 129.518 97.234 130.221C94.0031 133.102 88.6645 133.639 84.7992 133.191C80.8195 132.735 78.7363 131.396 78.4269 130.957C77.1086 129.069 74.5125 128.597 72.6246 129.911C70.7367 131.221 70.2644 133.818 71.5746 135.71C74.3875 139.761 80.4074 141.002 83.2648 141.381C83.1945 147.508 83.5918 156.772 89.0227 162.329C91.8383 165.206 95.5332 166.667 100.001 166.667C104.078 166.667 107.675 165.116 110.409 162.183C115.674 156.521 116.641 146.935 116.736 141.381C119.591 141.002 125.614 139.762 128.427 135.71C129.729 133.822 129.257 131.25 127.377 129.936C125.513 128.634 122.901 129.081 121.574 130.957Z" fill="#303C42"/>
<path d="M94.9866 156.506C91.7971 153.243 91.5467 145.969 91.5995 141.293C94.6878 140.82 97.5749 139.891 99.9995 138.46C102.41 139.885 105.328 140.675 108.394 141.15C108.295 145.865 107.467 153.102 104.305 156.506C101.692 159.294 97.1674 158.757 94.9866 156.506Z" fill="#E53935"/>
<path opacity="0.1" d="M100.001 145.817C102.21 147.123 104.867 147.855 107.651 148.341C108.12 145.818 108.352 143.237 108.396 141.15C105.329 140.675 102.412 139.886 100.001 138.46C97.576 139.891 94.6889 140.82 91.6006 141.293C91.5768 143.391 91.6561 146.01 91.9924 148.556C94.9275 148.067 97.6826 147.185 100.001 145.817Z" fill="black"/>
<path d="M165.661 157.784C157.005 160.209 150 153.743 150 145.833C150 138.94 155.607 133.333 162.5 133.333C168.035 133.333 172.727 136.991 174.322 142.238C173.146 147.059 170.26 152.472 165.661 157.784Z" fill="#E53935"/>
<path opacity="0.2" d="M152.257 148.572C152.257 141.679 157.864 136.072 164.757 136.072C167.939 136.072 170.754 137.375 172.95 139.399C170.76 135.752 166.945 133.333 162.5 133.333C155.607 133.333 150 138.94 150 145.833C150 149.598 151.621 153.002 154.218 155.31C153.007 153.344 152.257 151.051 152.257 148.572Z" fill="white"/>
<path d="M34.3369 157.782C29.74 152.47 26.8549 147.058 25.6787 142.239C27.2736 136.991 31.9658 133.334 37.5006 133.334C44.3936 133.334 50.0006 138.941 50.0006 145.834C50.0006 153.752 42.9338 160.19 34.3369 157.782Z" fill="#E53935"/>
<path opacity="0.2" d="M38.1947 137.153C43.6865 137.153 48.31 140.736 49.9838 145.669C49.8932 138.854 44.3369 133.334 37.5006 133.334C31.9658 133.334 27.2736 136.991 25.6787 142.239C25.9279 143.259 26.2951 144.318 26.6975 145.386C28.4893 140.527 32.9178 137.153 38.1947 137.153Z" fill="white"/>
<path d="M71.5742 135.71L83.5223 147.658C83.3301 145.412 83.243 143.24 83.2645 141.381C80.407 141.002 74.3871 139.761 71.5742 135.71ZM141.667 145.833C141.667 145.359 141.775 144.914 141.807 144.448L128.541 131.182H128.538C129.372 132.542 129.391 134.311 128.427 135.709C125.613 139.762 119.591 141.002 116.735 141.38C116.641 146.935 115.674 156.52 110.409 162.182C107.675 165.116 104.078 166.666 100 166.666C95.5324 166.666 91.8379 165.206 89.0223 162.329L109.636 182.942C130.411 181.279 146.225 174.339 157.101 165.868C148.238 163.472 141.667 155.441 141.667 145.833Z" fill="url(#paint0_linear)"/>
<path d="M175 104.167C175 94.416 171.451 82.9637 168.064 74.2301C190.404 68.475 200 28.9758 200 12.5C200 10.1969 198.136 8.33322 195.833 8.33322C172.342 8.33322 140.684 23.5992 134.492 40.1942C125.668 36.8196 113.354 33.3332 100 33.3332C86.6461 33.3332 74.332 36.8192 65.5074 40.1942C59.316 23.5992 27.6574 8.33322 4.16641 8.33322C1.86367 8.33322 0 10.1969 0 12.5C0 28.9758 9.5957 68.475 31.9355 74.2301C28.5488 82.9637 25 94.4156 25 104.167C25 111.479 23.5027 114.095 21.5984 117.407C19.2871 121.439 16.6668 126.017 16.6668 137.5C16.6668 159.639 46.3461 191.667 100 191.667C153.654 191.667 183.333 159.639 183.333 137.5C183.333 126.017 180.713 121.439 178.402 117.407C176.497 114.095 175 111.479 175 104.167Z" fill="url(#paint1_linear)"/>
<defs>
<linearGradient id="paint0_linear" x1="84.6553" y1="122.637" x2="142.498" y2="180.48" gradientUnits="userSpaceOnUse">
<stop stop-opacity="0.1"/>
<stop offset="1" stop-opacity="0"/>
</linearGradient>
<linearGradient id="paint1_linear" x1="-9.67664" y1="32.3275" x2="191.668" y2="126.241" gradientUnits="userSpaceOnUse">
<stop stop-color="white" stop-opacity="0.2"/>
<stop offset="1" stop-color="white" stop-opacity="0"/>
</linearGradient>
</defs>
</svg>
